<svg width="338" height="101" fill="none" xmlns="http://www.w3.org/2000/svg"><rect x="2.5" y="2.5" width="333" height="96" rx="27.5" stroke="url(#paint0_linear_10_312)" stroke-width="5"/><path d="M71.472 63a1.81 1.81 0 01-1.332-.54 1.81 1.81 0 01-.54-1.332V36.756c0-.552.18-.996.54-1.332.36-.36.804-.54 1.332-.54h8.604c1.632 0 3.06.324 4.284.972 1.248.624 2.22 1.5 2.916 2.628.72 1.128 1.08 2.424 1.08 3.888a5.6 5.6 0 01-.972 3.204c-.624.936-1.488 1.68-2.592 2.232 1.584.384 2.856 1.14 3.816 2.268s1.44 2.604 1.44 4.428c0 1.656-.396 3.12-1.188 4.392-.768 1.272-1.848 2.28-3.24 3.024-1.392.72-2.988 1.08-4.788 1.08h-9.36zm1.872-3.456h7.488c1.104 0 2.076-.192 2.916-.576a4.55 4.55 0 001.98-1.692c.48-.744.72-1.668.72-2.772 0-1.032-.24-1.884-.72-2.556-.48-.672-1.14-1.176-1.98-1.512-.84-.36-1.812-.54-2.916-.54h-7.488v9.648zm0-13.104h6.732c1.368 0 2.484-.336 3.348-1.008.888-.672 1.332-1.692 1.332-3.06s-.444-2.376-1.332-3.024c-.864-.672-1.98-1.008-3.348-1.008h-6.732v8.1zm30.84 16.704c-1.92 0-3.636-.432-5.148-1.296a9.847 9.847 0 01-3.528-3.564c-.84-1.512-1.26-3.216-1.26-5.112 0-1.944.42-3.672 1.26-5.184.84-1.512 1.992-2.688 3.456-3.528 1.464-.864 3.144-1.296 5.04-1.296 1.416 0 2.712.276 3.888.828 1.176.528 2.232 1.332 3.168 2.412.336.384.456.78.36 1.188-.096.408-.36.768-.792 1.08-.336.24-.708.324-1.116.252-.408-.096-.78-.312-1.116-.648-1.176-1.248-2.64-1.872-4.392-1.872-1.224 0-2.304.288-3.24.864-.936.552-1.668 1.332-2.196 2.34-.528 1.008-.792 2.196-.792 3.564 0 1.296.264 2.448.792 3.456a6.441 6.441 0 002.268 2.412c.96.576 2.076.864 3.348.864.84 0 1.572-.096 2.196-.288a5.519 5.519 0 001.764-.972c.384-.312.78-.48 1.188-.504a1.36 1.36 0 011.08.324c.408.336.636.72.684 1.152.048.408-.096.78-.432 1.116-1.728 1.608-3.888 2.412-6.48 2.412zm38.541-.108c-.528 0-.972-.168-1.332-.504-.336-.36-.504-.804-.504-1.332V50.904c0-1.512-.372-2.628-1.116-3.348-.744-.744-1.716-1.116-2.916-1.116-1.248 0-2.28.432-3.096 1.296-.792.864-1.188 1.968-1.188 3.312h-2.988c0-1.56.336-2.928 1.008-4.104a7.18 7.18 0 012.808-2.808c1.224-.672 2.616-1.008 4.176-1.008 1.368 0 2.58.3 3.636.9 1.056.6 1.872 1.488 2.448 2.664.6 1.152.9 2.556.9 4.212V61.2c0 .528-.168.972-.504 1.332-.336.336-.78.504-1.332.504zm-24.012 0c-.528 0-.972-.168-1.332-.504-.336-.36-.504-.804-.504-1.332V45.18c0-.552.168-.996.504-1.332.36-.336.804-.504 1.332-.504.552 0 .996.168 1.332.504.336.336.504.78.504 1.332V61.2c0 .528-.168.972-.504 1.332-.336.336-.78.504-1.332.504zm12.024 0c-.528 0-.972-.168-1.332-.504-.336-.36-.504-.804-.504-1.332V50.904c0-1.512-.372-2.628-1.116-3.348-.744-.744-1.716-1.116-2.916-1.116-1.248 0-2.28.432-3.096 1.296-.816.864-1.224 1.968-1.224 3.312h-2.268c0-1.56.312-2.928.936-4.104.624-1.2 1.488-2.136 2.592-2.808 1.104-.672 2.364-1.008 3.78-1.008 1.368 0 2.58.3 3.636.9 1.056.6 1.872 1.488 2.448 2.664.6 1.152.9 2.556.9 4.212V61.2c0 .528-.168.972-.504 1.332-.336.336-.78.504-1.332.504zm18.403 8.604c-.432 0-.876-.06-1.332-.18a5.95 5.95 0 01-1.296-.54c-.528-.312-.876-.696-1.044-1.152-.168-.456-.096-.9.216-1.332.288-.408.636-.66 1.044-.756.408-.096.84-.012 1.296.252.264.144.504.252.72.324.24.072.48.108.72.108.768 0 1.5-.396 2.196-1.188.72-.792 1.428-1.968 2.124-3.528l8.604-19.44c.216-.48.54-.804.972-.972a1.703 1.703 0 011.368.072c.408.168.672.48.792.936.12.432.06.9-.18 1.404l-8.676 19.44c-.864 1.944-1.968 3.516-3.312 4.716-1.32 1.224-2.724 1.836-4.212 1.836zm8.208-9.432c-.456.192-.888.216-1.296.072-.384-.168-.696-.48-.936-.936l-8.244-15.66c-.24-.456-.276-.888-.108-1.296.192-.432.516-.744.972-.936.456-.192.876-.204 1.26-.036.408.144.732.444.972.9l7.92 15.516c.24.456.324.924.252 1.404-.072.456-.336.78-.792.972zm28.579.828c-.528 0-.972-.168-1.332-.504-.336-.36-.504-.804-.504-1.332v-8.856c0-1.368-.252-2.484-.756-3.348-.504-.864-1.188-1.5-2.052-1.908-.84-.432-1.812-.648-2.916-.648-1.008 0-1.92.204-2.736.612-.816.408-1.464.96-1.944 1.656-.48.672-.72 1.452-.72 2.34h-2.268c0-1.512.36-2.856 1.08-4.032a8.017 8.017 0 013.024-2.844c1.272-.696 2.7-1.044 4.284-1.044 1.656 0 3.132.36 4.428 1.08 1.32.696 2.352 1.728 3.096 3.096.768 1.368 1.152 3.048 1.152 5.04V61.2c0 .528-.18.972-.54 1.332-.336.336-.768.504-1.296.504zm-14.796 0c-.528 0-.972-.168-1.332-.504-.336-.36-.504-.804-.504-1.332V45.144c0-.552.168-.996.504-1.332.36-.336.804-.504 1.332-.504.552 0 .996.168 1.332.504.336.336.504.78.504 1.332V61.2c0 .528-.168.972-.504 1.332-.336.336-.78.504-1.332.504zm30.983.144c-1.656 0-3.144-.348-4.464-1.044-1.296-.72-2.328-1.764-3.096-3.132-.744-1.368-1.116-3.048-1.116-5.04v-8.856c0-.528.168-.96.504-1.296.36-.36.804-.54 1.332-.54s.96.18 1.296.54c.36.336.54.768.54 1.296v8.856c0 1.344.252 2.46.756 3.348a4.85 4.85 0 002.052 1.944c.864.408 1.836.612 2.916.612 1.032 0 1.944-.204 2.736-.612.816-.408 1.464-.96 1.944-1.656s.72-1.476.72-2.34h2.268c0 1.488-.372 2.832-1.116 4.032-.72 1.2-1.716 2.148-2.988 2.844-1.248.696-2.676 1.044-4.284 1.044zm7.956-.18c-.528 0-.972-.168-1.332-.504-.336-.36-.504-.804-.504-1.332V45.108c0-.552.168-.996.504-1.332.36-.336.804-.504 1.332-.504.552 0 .996.168 1.332.504.336.336.504.78.504 1.332v16.056c0 .528-.168.972-.504 1.332-.336.336-.78.504-1.332.504zm34.151.036c-.528 0-.972-.168-1.332-.504-.336-.36-.504-.804-.504-1.332V50.904c0-1.512-.372-2.628-1.116-3.348-.744-.744-1.716-1.116-2.916-1.116-1.248 0-2.28.432-3.096 1.296-.792.864-1.188 1.968-1.188 3.312h-2.988c0-1.56.336-2.928 1.008-4.104a7.18 7.18 0 012.808-2.808c1.224-.672 2.616-1.008 4.176-1.008 1.368 0 2.58.3 3.636.9 1.056.6 1.872 1.488 2.448 2.664.6 1.152.9 2.556.9 4.212V61.2c0 .528-.168.972-.504 1.332-.336.336-.78.504-1.332.504zm-24.012 0c-.528 0-.972-.168-1.332-.504-.336-.36-.504-.804-.504-1.332V45.18c0-.552.168-.996.504-1.332.36-.336.804-.504 1.332-.504.552 0 .996.168 1.332.504.336.336.504.78.504 1.332V61.2c0 .528-.168.972-.504 1.332-.336.336-.78.504-1.332.504zm12.024 0c-.528 0-.972-.168-1.332-.504-.336-.36-.504-.804-.504-1.332V50.904c0-1.512-.372-2.628-1.116-3.348-.744-.744-1.716-1.116-2.916-1.116-1.248 0-2.28.432-3.096 1.296-.816.864-1.224 1.968-1.224 3.312h-2.268c0-1.56.312-2.928.936-4.104.624-1.2 1.488-2.136 2.592-2.808 1.104-.672 2.364-1.008 3.78-1.008 1.368 0 2.58.3 3.636.9 1.056.6 1.872 1.488 2.448 2.664.6 1.152.9 2.556.9 4.212V61.2c0 .528-.168.972-.504 1.332-.336.336-.78.504-1.332.504zm28.817.288c-1.8 0-3.372-.324-4.716-.972-1.32-.648-2.352-1.56-3.096-2.736-.72-1.2-1.08-2.604-1.08-4.212V45.108a1.99 1.99 0 01.576-1.26c.36-.36.78-.54 1.26-.54.528 0 .96.18 1.296.54.36.336.54.768.54 1.296v4.032h5.904c1.56 0 2.952.276 4.176.828 1.248.528 2.232 1.308 2.952 2.34.72 1.008 1.08 2.22 1.08 3.636s-.372 2.676-1.116 3.78c-.72 1.104-1.74 1.98-3.06 2.628-1.32.624-2.892.936-4.716.936zm-.036-3.384c1.536 0 2.82-.324 3.852-.972 1.032-.672 1.548-1.668 1.548-2.988 0-1.248-.444-2.172-1.332-2.772-.888-.624-2.004-.936-3.348-.936h-5.904v3.06c0 .864.228 1.644.684 2.34a4.898 4.898 0 001.836 1.656c.792.408 1.68.612 2.664.612z" fill="#FFEDC7"/><defs><linearGradient id="paint0_linear_10_312" x1="96.5" y1="0" x2="281.5" y2="164.5" gradientUnits="userSpaceOnUse"><stop stop-color="#EC9B64"/><stop offset=".484" stop-color="#FFECC4"/><stop offset="1" stop-color="#EC9B64"/></linearGradient></defs></svg>