<svg width="70" height="70" fill="none" xmlns="http://www.w3.org/2000/svg"><g clip-path="url(#clip0_10_317)"><path d="M35 5.833C18.9 5.833 5.833 18.9 5.833 35S18.9 64.167 35 64.167 64.167 51.1 64.167 35 51.1 5.833 35 5.833zM20.62 53.317c1.255-2.625 8.897-5.192 14.38-5.192 5.483 0 13.154 2.567 14.38 5.192A23.02 23.02 0 0135 58.333a23.02 23.02 0 01-14.38-5.016zm32.93-4.23c-4.17-5.075-14.292-6.795-18.55-6.795-4.258 0-14.38 1.72-18.55 6.795-2.975-3.908-4.783-8.779-4.783-14.087 0-12.863 10.47-23.333 23.333-23.333 12.862 0 23.333 10.47 23.333 23.333 0 5.308-1.808 10.18-4.783 14.087zM35 17.5a10.182 10.182 0 00-10.208 10.208c0 5.659 4.55 10.209 10.208 10.209s10.208-4.55 10.208-10.209C45.208 22.05 40.658 17.5 35 17.5zm0 14.583a4.37 4.37 0 01-4.375-4.375A4.37 4.37 0 0135 23.333a4.37 4.37 0 014.375 4.375A4.37 4.37 0 0135 32.083z" fill="#fff" fill-opacity=".76"/></g><defs><clipPath id="clip0_10_317"><path fill="#fff" d="M0 0h70v70H0z"/></clipPath></defs></svg>